STARTFONT 2.1
FONT -Adobe-Utopia-Bold-I-Normal--25-180-100-100-P-139-ISO8859-2
SIZE 18 100 100
FONTBOUNDINGBOX 37 29 -4 -6
STARTPROPERTIES 29
FOUNDRY "Adobe"
FAMILY_NAME "Utopia"
WEIGHT_NAME "Bold"
SLANT "I"
SETWIDTH_NAME "Normal"
ADD_STYLE_NAME ""
PIXEL_SIZE 25
POINT_SIZE 180
RESOLUTION_X 100
RESOLUTION_Y 100
SPACING "P"
AVERAGE_WIDTH 139
CHARSET_REGISTRY "ISO8859"
CHARSET_ENCODING "2"
CAP_HEIGHT 17
X_HEIGHT 12
RELATIVE_SETWIDTH 50
RELATIVE_WEIGHT 70
WEIGHT 208
FACE_NAME "Utopia Bold Italic"
COPYRIGHT "Copyright (c) 1989, 1991 Adobe Systems Incorporated.  All Rights Reserved., Copyright 1996 Cub Soft"
NOTICE "Utopia is a registered trademark of Adobe Systems Incorporated."
DESTINATION 0
FONT_ASCENT 23
FONT_DESCENT 6
DEFAULT_CHAR 32
_ADOBE_PSFONT "Utopia-BoldItalic"
_ADOBE_XFONT "-Adobe-Utopia-Bold-I-Normal--25-180-100-100-P-139-ISO8859-2"
_DEC_DEVICE_FONTNAMES "PS=Utopia-BoldItalic"
ENDPROPERTIES
CHARS 191
STARTCHAR space
ENCODING 32
SWIDTH 210 0
DWIDTH 5 0
BBX 0 0 0 0
BITMAP
ENDCHAR
STARTCHAR exclam
ENCODING 33
SWIDTH 285 0
DWIDTH 7 0
BBX 8 18 2 0
BITMAP
07
0f
1e
1e
1e
1c
1c
1c
18
18
18
10
20
00
70
f8
f0
60
ENDCHAR
STARTCHAR quotedbl
ENCODING 34
SWIDTH 455 0
DWIDTH 11 0
BBX 9 7 4 11
BITMAP
7380
f780
e700
e700
c600
c600
8600
ENDCHAR
STARTCHAR numbersign
ENCODING 35
SWIDTH 560 0
DWIDTH 14 0
BBX 14 18 2 -1
BITMAP
0318
0318
0330
0630
0620
3ffc
3ff8
0c40
0cc0
18c0
7ff0
fff0
3180
3180
3300
6300
6300
0400
ENDCHAR
STARTCHAR dollar
ENCODING 36
SWIDTH 560 0
DWIDTH 14 0
BBX 14 22 2 -3
BITMAP
0040
00c0
07e0
0cb8
199c
3998
3900
3f00
1f80
1fc0
07e0
03f0
02f0
0670
6670
e670
f460
74c0
1f80
0c00
0c00
0800
ENDCHAR
STARTCHAR percent
ENCODING 37
SWIDTH 896 0
DWIDTH 22 0
BBX 20 18 3 0
BITMAP
000080
1f00c0
39ff80
71c300
61c600
e1cc00
e18c00
e39800
673000
3c67c0
00ce60
019c70
019870
033870
063860
0c38e0
1819c0
100f00
ENDCHAR
STARTCHAR ampersand
ENCODING 38
SWIDTH 752 0
DWIDTH 19 0
BBX 18 17 2 0
BITMAP
01c000
073000
063800
0e3800
0e3000
0f7180
0fc3c0
078380
1f8380
73c700
73e600
f1fc00
f0f800
f07c00
787e00
3fdf00
1f0380
ENDCHAR
STARTCHAR apostrophe
ENCODING 39
SWIDTH 246 0
DWIDTH 6 0
BBX 5 8 3 10
BITMAP
30
78
78
38
30
60
40
80
ENDCHAR
STARTCHAR parenleft
ENCODING 40
SWIDTH 350 0
DWIDTH 9 0
BBX 8 21 3 -3
BITMAP
03
0e
1c
38
38
30
70
60
60
60
e0
c0
c0
c0
c0
c0
c0
c0
40
60
30
ENDCHAR
STARTCHAR parenright
ENCODING 41
SWIDTH 350 0
DWIDTH 9 0
BBX 8 21 1 -3
BITMAP
0c
06
06
02
03
03
03
03
03
03
03
06
06
06
0e
0c
1c
1c
38
70
c0
ENDCHAR
STARTCHAR asterisk
ENCODING 42
SWIDTH 500 0
DWIDTH 12 0
BBX 10 10 4 8
BITMAP
0600
0600
64c0
75c0
0e00
3e00
eb80
c980
1800
1800
ENDCHAR
STARTCHAR plus
ENCODING 43
SWIDTH 600 0
DWIDTH 15 0
BBX 12 13 3 0
BITMAP
0600
0600
0600
0600
0600
0600
fff0
fff0
0600
0600
0600
0600
0600
ENDCHAR
STARTCHAR comma
ENCODING 44
SWIDTH 280 0
DWIDTH 7 0
BBX 5 9 1 -4
BITMAP
30
78
78
78
30
70
60
c0
80
ENDCHAR
STARTCHAR minus
ENCODING 45
SWIDTH 600 0
DWIDTH 15 0
BBX 12 2 3 5
BITMAP
fff0
fff0
ENDCHAR
STARTCHAR period
ENCODING 46
SWIDTH 280 0
DWIDTH 7 0
BBX 4 4 2 0
BITMAP
60
f0
f0
60
ENDCHAR
STARTCHAR slash
ENCODING 47
SWIDTH 260 0
DWIDTH 6 0
BBX 10 18 0 0
BITMAP
01c0
0180
0380
0300
0300
0700
0600
0e00
0c00
0c00
1c00
1800
3800
3000
3000
7000
6000
e000
ENDCHAR
STARTCHAR zero
ENCODING 48
SWIDTH 560 0
DWIDTH 14 0
BBX 14 17 2 0
BITMAP
03e0
0e30
1e38
3c3c
3c3c
783c
783c
787c
f87c
f078
f078
f078
f0f0
f0f0
71e0
31c0
1f00
ENDCHAR
STARTCHAR one
ENCODING 49
SWIDTH 560 0
DWIDTH 14 0
BBX 10 17 3 0
BITMAP
00c0
0fc0
1780
0380
0780
0780
0780
0700
0700
0f00
0f00
0e00
0e00
1e00
1e00
1e00
ff80
ENDCHAR
STARTCHAR two
ENCODING 50
SWIDTH 560 0
DWIDTH 14 0
BBX 14 17 1 0
BITMAP
03e0
0e38
1e3c
1c3c
1c3c
007c
0078
00f8
01f0
03c0
0700
1c00
3800
7018
fff0
fff0
ffe0
ENDCHAR
STARTCHAR three
ENCODING 51
SWIDTH 560 0
DWIDTH 14 0
BBX 14 17 1 0
BITMAP
03e0
0e38
1e3c
1c3c
083c
0078
00f0
0fc0
00f0
0070
0078
0078
6078
f078
70f0
79e0
1f80
ENDCHAR
STARTCHAR four
ENCODING 52
SWIDTH 560 0
DWIDTH 14 0
BBX 13 17 2 0
BITMAP
0038
0078
00f0
01f0
0370
02f0
06f0
0ce0
18e0
30e0
61e0
7ff8
fff8
01c0
03c0
03c0
0fe0
ENDCHAR
STARTCHAR five
ENCODING 53
SWIDTH 560 0
DWIDTH 14 0
BBX 15 17 1 0
BITMAP
0ffe
0ffc
0ff8
0800
1800
1800
13c0
1ff0
18f0
0078
0078
0078
6078
7070
f0f0
79e0
1f80
ENDCHAR
STARTCHAR six
ENCODING 54
SWIDTH 560 0
DWIDTH 14 0
BBX 14 17 2 0
BITMAP
03f0
0f38
1e1c
3c1c
3c00
7c00
79c0
7ff0
78f0
f878
f078
f078
f078
f0f0
70f0
39e0
1f80
ENDCHAR
STARTCHAR seven
ENCODING 55
SWIDTH 560 0
DWIDTH 14 0
BBX 13 17 4 0
BITMAP
7ff8
7ff0
7ff0
8060
0040
00c0
0180
0300
0600
0e00
1c00
3c00
3800
7800
7800
7800
3000
ENDCHAR
STARTCHAR eight
ENCODING 56
SWIDTH 560 0
DWIDTH 14 0
BBX 14 17 2 0
BITMAP
07e0
1e38
1e38
3c3c
3c3c
3c3c
1c78
1c70
0fc0
3cf0
7870
f078
f078
f0f8
f0f0
79e0
1f80
ENDCHAR
STARTCHAR nine
ENCODING 57
SWIDTH 560 0
DWIDTH 14 0
BBX 13 17 2 0
BITMAP
07c0
1ce0
3c70
3870
7878
7878
7878
7878
3cf8
3f70
0ef0
00f0
00e0
e0e0
e1c0
7380
1e00
ENDCHAR
STARTCHAR colon
ENCODING 58
SWIDTH 280 0
DWIDTH 7 0
BBX 6 13 2 0
BITMAP
18
3c
3c
38
10
00
00
00
20
70
f0
f0
60
ENDCHAR
STARTCHAR semicolon
ENCODING 59
SWIDTH 280 0
DWIDTH 7 0
BBX 7 16 1 -3
BITMAP
0c
1e
1e
1c
00
00
00
30
78
78
78
30
70
60
c0
80
ENDCHAR
STARTCHAR less
ENCODING 60
SWIDTH 600 0
DWIDTH 15 0
BBX 12 13 2 0
BITMAP
0010
0070
01f0
0fc0
3f00
f800
e000
f800
3e00
07c0
01f0
0070
0010
ENDCHAR
STARTCHAR equal
ENCODING 61
SWIDTH 600 0
DWIDTH 15 0
BBX 12 7 3 3
BITMAP
fff0
fff0
0000
0000
0000
fff0
fff0
ENDCHAR
STARTCHAR greater
ENCODING 62
SWIDTH 600 0
DWIDTH 15 0
BBX 12 13 3 0
BITMAP
8000
e000
f800
3f00
0fc0
01f0
0070
01f0
07c0
3e00
f800
e000
8000
ENDCHAR
STARTCHAR question
ENCODING 63
SWIDTH 454 0
DWIDTH 11 0
BBX 10 18 4 0
BITMAP
3e00
7380
f3c0
e3c0
47c0
0780
1f00
3c00
7800
f000
f000
7c00
3000
0000
7000
f800
f000
6000
ENDCHAR
STARTCHAR at
ENCODING 64
SWIDTH 828 0
DWIDTH 21 0
BBX 19 18 3 0
BITMAP
00fc00
038300
0e0180
1c00c0
387ec0
70ee60
71ce60
638e60
639e60
e39c60
e72c40
e73cc0
675d80
738e00
700000
380000
0e0600
03f800
ENDCHAR
STARTCHAR A
ENCODING 65
SWIDTH 634 0
DWIDTH 16 0
BBX 17 18 0 0
BITMAP
001c00
003c00
003c00
007c00
007c00
00dc00
009c00
019c00
011c00
031e00
021e00
07fe00
0c1e00
0c1e00
181e00
181e00
301e00
fc7f80
ENDCHAR
STARTCHAR B
ENCODING 66
SWIDTH 680 0
DWIDTH 17 0
BBX 17 18 1 0
BITMAP
0ffc00
078f00
078780
078780
078780
078780
0f0f00
0f1e00
0ff800
0f1800
0e0e00
1e0f00
1e0f00
1e0f00
1e0f00
1c1e00
3c3e00
fff800
ENDCHAR
STARTCHAR C
ENCODING 67
SWIDTH 672 0
DWIDTH 17 0
BBX 16 18 3 0
BITMAP
01fc
0707
1e07
3c02
3c02
7802
7800
f800
f000
f000
f000
f000
f004
700c
700c
7818
1c38
07e0
ENDCHAR
STARTCHAR D
ENCODING 68
SWIDTH 774 0
DWIDTH 19 0
BBX 19 18 1 0
BITMAP
1ffc00
078780
078380
0781c0
0701c0
0f01e0
0f01e0
0f01e0
0f01e0
1e01e0
1e03c0
1e03c0
1e03c0
1e0780
3c0780
3c0f00
3c3c00
fff000
ENDCHAR
STARTCHAR E
ENCODING 69
SWIDTH 622 0
DWIDTH 16 0
BBX 17 18 1 0
BITMAP
1fff80
078380
078180
078100
078100
070000
0f0400
0f0c00
0ff800
0f1800
0e0800
1e0000
1e0000
1e0200
1e0600
3c0c00
3c1c00
fffc00
ENDCHAR
STARTCHAR F
ENCODING 70
SWIDTH 585 0
DWIDTH 15 0
BBX 17 18 1 0
BITMAP
1fff80
078300
078300
078100
070000
0f0000
0f0400
0f0400
0f0c00
1ff800
1e0800
1e0800
1e0000
1c0000
3c0000
3c0000
3c0000
ff0000
ENDCHAR
STARTCHAR G
ENCODING 71
SWIDTH 726 0
DWIDTH 18 0
BBX 17 18 3 0
BITMAP
01fc00
070700
1e0300
3c0300
3c0300
780200
780000
780000
f00000
f00000
f07f80
f01e00
f01e00
f03c00
703c00
383c00
3c7c00
0fe000
ENDCHAR
STARTCHAR H
ENCODING 72
SWIDTH 800 0
DWIDTH 20 0
BBX 22 18 1 0
BITMAP
0ff3fc
0780f0
0780e0
0781e0
0781e0
0781e0
0f01e0
0f01c0
0fffc0
0f03c0
0e03c0
1e03c0
1e0780
1e0780
1e0780
1c0780
3c0780
ff3fc0
ENDCHAR
STARTCHAR I
ENCODING 73
SWIDTH 386 0
DWIDTH 10 0
BBX 12 18 1 0
BITMAP
0ff0
03c0
0780
0780
0780
0780
0700
0f00
0f00
0f00
0f00
0e00
1e00
1e00
1e00
1e00
3c00
ff00
ENDCHAR
STARTCHAR J
ENCODING 74
SWIDTH 388 0
DWIDTH 10 0
BBX 13 21 0 -3
BITMAP
07f8
01e0
01e0
01c0
03c0
03c0
03c0
0380
0780
0780
0780
0780
0700
0f00
0f00
0f00
0e00
1e00
1e00
3c00
f000
ENDCHAR
STARTCHAR K
ENCODING 75
SWIDTH 688 0
DWIDTH 17 0
BBX 20 18 1 0
BITMAP
1ff3f0
0781c0
078300
078600
078c00
071800
0f3000
0f6000
0fe000
0ef000
0ef000
1ef800
1e7800
1e7c00
1c3c00
3c3e00
3c1f00
ff0380
ENDCHAR
STARTCHAR L
ENCODING 76
SWIDTH 586 0
DWIDTH 15 0
BBX 15 18 1 0
BITMAP
0ff0
07c0
0780
0780
0780
0780
0f00
0f00
0f00
0f00
0f00
1e00
1e00
1e02
1e04
3e0c
3e1c
fffc
ENDCHAR
STARTCHAR M
ENCODING 77
SWIDTH 921 0
DWIDTH 23 0
BBX 25 18 1 0
BITMAP
1fc03f80
07c03e00
07c07c00
05c05c00
05c0fc00
0dc0bc00
0de1bc00
09e13800
09e27800
08e67800
18e47800
18ec7000
10f87000
10f8f000
30f0f000
30f0f000
3060f000
fc63f800
ENDCHAR
STARTCHAR N
ENCODING 78
SWIDTH 741 0
DWIDTH 19 0
BBX 21 18 1 0
BITMAP
0f81f8
07c060
07c060
07e040
05e0c0
04e0c0
0cf0c0
0cf080
0c7880
087980
083980
183d80
183d00
181f00
101f00
300f00
300e00
fc0e00
ENDCHAR
STARTCHAR O
ENCODING 79
SWIDTH 761 0
DWIDTH 19 0
BBX 17 18 3 0
BITMAP
01f800
0f0e00
1e0600
3e0700
3c0780
780780
780780
780780
f80780
f00f80
f00f00
f00f00
f00f00
f01e00
703e00
383c00
187800
0fe000
ENDCHAR
STARTCHAR P
ENCODING 80
SWIDTH 660 0
DWIDTH 16 0
BBX 17 18 1 0
BITMAP
1ffc00
078f00
078700
078780
070780
0f0780
0f0780
0f0f00
0f0f00
0f1e00
1ff000
1e0000
1e0000
1e0000
3c0000
3c0000
3c0000
ff0000
ENDCHAR
STARTCHAR Q
ENCODING 81
SWIDTH 761 0
DWIDTH 19 0
BBX 17 23 3 -5
BITMAP
01f800
0f0e00
1e0700
3e0700
3c0780
780780
780780
780780
f80780
f00f80
f00f00
f00f00
f00f00
f01e00
703e00
783c00
1cf800
0fe000
03c000
03e000
01f000
00f800
003e00
ENDCHAR
STARTCHAR R
ENCODING 82
SWIDTH 681 0
DWIDTH 17 0
BBX 17 18 1 0
BITMAP
1ffc00
078f00
078780
078780
070780
0f0780
0f0f00
0f0f00
0f1e00
1ff000
1e1c00
1e1e00
1e1e00
1c1e00
3c1e00
3c1e00
3c0f00
ff0f80
ENDCHAR
STARTCHAR S
ENCODING 83
SWIDTH 551 0
DWIDTH 14 0
BBX 13 18 2 0
BITMAP
03e0
0e38
1c30
3c10
3c10
3c00
3e00
1f80
0fc0
03e0
01e0
01f0
c0f0
c0f0
c0e0
e0e0
71c0
1f00
ENDCHAR
STARTCHAR T
ENCODING 84
SWIDTH 616 0
DWIDTH 15 0
BBX 16 18 3 0
BITMAP
7fff
63c7
43c2
c3c2
83c2
0780
0780
0780
0780
0700
0f00
0f00
0f00
0f00
0e00
1e00
1e00
7f80
ENDCHAR
STARTCHAR U
ENCODING 85
SWIDTH 776 0
DWIDTH 19 0
BBX 19 18 4 0
BITMAP
7f9fe0
3c0780
3c0700
3c0f00
3c0f00
380f00
780f00
780e00
781e00
781e00
701e00
f01c00
f03c00
f03c00
f03800
707800
78f000
1fc000
ENDCHAR
STARTCHAR V
ENCODING 86
SWIDTH 630 0
DWIDTH 16 0
BBX 17 18 3 0
BITMAP
fe1f80
780600
380c00
380c00
3c1800
3c1800
3c3000
3c3000
3c6000
3c6000
1cc000
1c8000
1d8000
1d0000
1f0000
1e0000
1e0000
1c0000
ENDCHAR
STARTCHAR W
ENCODING 87
SWIDTH 920 0
DWIDTH 23 0
BBX 24 18 3 0
BITMAP
ff003f
7c0e0c
3c1e0c
3c1e18
3c3e18
3c3e10
3c7e30
3c5e20
3c5e60
3c8e60
3c8e40
3d0ec0
3d0e80
3f0f80
3e0f00
3e0f00
3c0e00
3c0e00
ENDCHAR
STARTCHAR X
ENCODING 88
SWIDTH 630 0
DWIDTH 16 0
BBX 20 18 -1 0
BITMAP
0ff3f0
07c1c0
03c380
03c300
01e600
01ec00
00f800
00f000
00f000
00f800
00f800
01f800
033c00
063c00
0c1e00
1c1e00
381f00
fe7f80
ENDCHAR
STARTCHAR Y
ENCODING 89
SWIDTH 622 0
DWIDTH 16 0
BBX 17 18 3 0
BITMAP
ff3f80
3c0e00
3c0c00
3c1800
1c3800
1e3000
1e6000
1e4000
0ec000
0f8000
0f0000
0f0000
0f0000
0f0000
1e0000
1e0000
1e0000
ff8000
ENDCHAR
STARTCHAR Z
ENCODING 90
SWIDTH 618 0
DWIDTH 15 0
BBX 19 18 0 0
BITMAP
07ffe0
0607c0
040f80
0c1f80
081f00
003e00
007c00
00f800
01f000
01f000
03e000
07c000
0f8000
1f0100
1e0300
3e0300
7c0600
fffe00
ENDCHAR
STARTCHAR bracketleft
ENCODING 91
SWIDTH 350 0
DWIDTH 9 0
BBX 9 21 2 -3
BITMAP
0f80
0e00
0c00
0c00
0c00
1c00
1800
1800
1800
3800
3800
3000
3000
3000
7000
7000
6000
6000
6000
e000
f800
ENDCHAR
STARTCHAR backslash
ENCODING 92
SWIDTH 460 0
DWIDTH 11 0
BBX 8 18 4 0
BITMAP
e0
60
60
70
70
30
38
38
18
18
1c
1c
0c
0e
0e
06
06
07
ENDCHAR
STARTCHAR bracketright
ENCODING 93
SWIDTH 350 0
DWIDTH 9 0
BBX 9 21 0 -3
BITMAP
0f80
0380
0300
0300
0300
0700
0700
0600
0600
0600
0e00
0e00
0c00
0c00
0c00
1c00
1800
1800
1800
3800
f800
ENDCHAR
STARTCHAR asciicircum
ENCODING 94
SWIDTH 600 0
DWIDTH 15 0
BBX 12 11 3 6
BITMAP
0600
0f00
0f00
1f80
1980
1980
39c0
30c0
70e0
6060
e070
ENDCHAR
STARTCHAR underscore
ENCODING 95
SWIDTH 500 0
DWIDTH 12 0
BBX 12 1 0 -3
BITMAP
fff0
ENDCHAR
STARTCHAR grave
ENCODING 96
SWIDTH 400 0
DWIDTH 10 0
BBX 7 6 3 13
BITMAP
40
e0
70
38
0c
02
ENDCHAR
STARTCHAR a
ENCODING 97
SWIDTH 596 0
DWIDTH 15 0
BBX 15 13 1 0
BITMAP
03dc
073c
1e3c
3c38
3878
7878
78f8
70f0
f170
f1f2
f2f4
fcf8
7070
ENDCHAR
STARTCHAR b
ENCODING 98
SWIDTH 586 0
DWIDTH 15 0
BBX 14 19 2 0
BITMAP
0700
3e00
0e00
1e00
1e00
1c00
1c78
1cf8
3d3c
3a3c
3c3c
3c3c
7878
7878
7870
78f0
f0e0
f9c0
df00
ENDCHAR
STARTCHAR c
ENCODING 99
SWIDTH 456 0
DWIDTH 11 0
BBX 11 13 2 0
BITMAP
03c0
0ce0
38e0
38c0
7800
7000
f000
f000
f040
f080
f180
7f00
3800
ENDCHAR
STARTCHAR d
ENCODING 100
SWIDTH 609 0
DWIDTH 15 0
BBX 16 19 2 0
BITMAP
0007
003e
001e
001e
001e
001c
03dc
0f3c
1c3c
3c38
3878
7878
78f8
f0f0
f170
f172
f2f4
7cf8
7870
ENDCHAR
STARTCHAR e
ENCODING 101
SWIDTH 476 0
DWIDTH 12 0
BBX 11 13 2 0
BITMAP
0380
0ce0
38e0
38e0
79c0
73c0
ff00
f800
f040
f080
f180
7f00
1800
ENDCHAR
STARTCHAR f
ENCODING 102
SWIDTH 348 0
DWIDTH 9 0
BBX 17 25 -2 -6
BITMAP
001e00
007380
007380
00f000
00e000
00e000
07fc00
01e000
01e000
01c000
01c000
03c000
03c000
038000
038000
038000
078000
078000
070000
070000
070000
0e0000
ce0000
ec0000
780000
ENDCHAR
STARTCHAR g
ENCODING 103
SWIDTH 522 0
DWIDTH 13 0
BBX 16 19 0 -6
BITMAP
03e7
0f3e
0f38
1e3c
1e3c
1e3c
1e38
0e70
0fc0
3c00
3f00
1fe0
0ff0
78f8
f038
f038
f038
7870
0fc0
ENDCHAR
STARTCHAR h
ENCODING 104
SWIDTH 629 0
DWIDTH 16 0
BBX 15 19 2 0
BITMAP
0700
3f00
0e00
0e00
1e00
1e00
1c38
1cfc
1d3c
3d3c
3a38
3c38
3c78
7878
7870
78f2
70f4
70f8
f070
ENDCHAR
STARTCHAR i
ENCODING 105
SWIDTH 339 0
DWIDTH 8 0
BBX 8 18 2 0
BITMAP
06
0f
0f
06
00
0e
fc
3c
3c
38
38
78
78
70
72
f4
f8
70
ENDCHAR
STARTCHAR j
ENCODING 106
SWIDTH 333 0
DWIDTH 8 0
BBX 12 24 -2 -6
BITMAP
0060
00f0
00f0
00e0
0000
0060
07e0
01e0
01e0
01c0
01c0
01c0
03c0
03c0
0380
0380
0780
0780
0700
0700
0700
4e00
ee00
7800
ENDCHAR
STARTCHAR k
ENCODING 107
SWIDTH 570 0
DWIDTH 14 0
BBX 14 19 2 0
BITMAP
0700
3e00
0e00
0e00
1e00
1e00
1c18
1c7c
3c9c
3d08
3900
3b00
3f80
7f80
7b80
73c8
73c8
f1f0
f0c0
ENDCHAR
STARTCHAR l
ENCODING 108
SWIDTH 327 0
DWIDTH 8 0
BBX 8 19 2 0
BITMAP
07
3e
0e
1e
1e
1c
1c
3c
3c
38
38
78
78
70
70
f2
f4
f8
70
ENDCHAR
STARTCHAR m
ENCODING 109
SWIDTH 914 0
DWIDTH 23 0
BBX 22 13 2 0
BITMAP
0e3070
7cf9f8
1d3a78
1d3e78
3a3470
3c78f0
3c78f0
7870f0
7870e0
78f1e4
70e1e8
f0e1f0
f1e0e0
ENDCHAR
STARTCHAR n
ENCODING 110
SWIDTH 635 0
DWIDTH 16 0
BBX 15 13 2 0
BITMAP
0e38
7cfc
1d3c
3d3c
3a38
3c78
3c78
7878
7870
78f2
70f4
f0f8
f070
ENDCHAR
STARTCHAR o
ENCODING 111
SWIDTH 562 0
DWIDTH 14 0
BBX 13 13 2 0
BITMAP
03c0
1e70
3c70
3878
7878
7878
f8f8
f0f0
f0f0
f0e0
71e0
73c0
1e00
ENDCHAR
STARTCHAR p
ENCODING 112
SWIDTH 606 0
DWIDTH 15 0
BBX 15 19 1 -6
BITMAP
0e38
7e7c
1e9e
1d1e
1e1e
1e1e
3c3c
3c3c
3c38
3878
7870
78e0
7780
7000
7000
f000
f000
e000
e000
ENDCHAR
STARTCHAR q
ENCODING 113
SWIDTH 584 0
DWIDTH 15 0
BBX 14 19 2 -6
BITMAP
03ec
0f3c
1e3c
3c3c
3838
7878
7878
f0f8
f170
f170
f2f0
7cf0
78e0
00e0
01e0
01e0
01c0
01c0
0300
ENDCHAR
STARTCHAR r
ENCODING 114
SWIDTH 440 0
DWIDTH 11 0
BBX 11 13 2 0
BITMAP
1c60
7de0
3de0
3a40
3c00
3c00
3800
7800
7000
7000
7000
f000
e000
ENDCHAR
STARTCHAR s
ENCODING 115
SWIDTH 417 0
DWIDTH 10 0
BBX 10 13 1 0
BITMAP
0f00
19c0
39c0
3880
3c00
1e00
1f00
0f00
0780
e380
e380
f300
3e00
ENDCHAR
STARTCHAR t
ENCODING 116
SWIDTH 359 0
DWIDTH 9 0
BBX 9 17 2 0
BITMAP
0200
0600
1e00
1c00
ff80
3c00
3c00
3800
3800
7800
7800
7000
7200
f200
f400
f800
7000
ENDCHAR
STARTCHAR u
ENCODING 117
SWIDTH 634 0
DWIDTH 16 0
BBX 15 13 2 0
BITMAP
0e1c
fc1c
3c3c
3c3c
3878
7878
7878
78f8
7170
f172
f2f4
fcf8
7070
ENDCHAR
STARTCHAR v
ENCODING 118
SWIDTH 518 0
DWIDTH 13 0
BBX 11 13 3 0
BITMAP
1c40
f8e0
38e0
38e0
38c0
78c0
70c0
7180
7180
f300
f200
fc00
7800
ENDCHAR
STARTCHAR w
ENCODING 119
SWIDTH 795 0
DWIDTH 20 0
BBX 19 13 3 0
BITMAP
1c38c0
fc78e0
3c70e0
3870e0
3870c0
78f0c0
78f080
71e180
71e100
f2e200
f2e400
fcf800
707000
ENDCHAR
STARTCHAR x
ENCODING 120
SWIDTH 516 0
DWIDTH 13 0
BBX 15 13 0 0
BITMAP
011c
0f3e
1fbc
07c0
0780
0380
0380
03c0
05c4
45c8
f9c8
f9f0
60e0
ENDCHAR
STARTCHAR y
ENCODING 121
SWIDTH 489 0
DWIDTH 12 0
BBX 14 19 0 -6
BITMAP
020c
1e1c
7e1c
0e18
0e18
0e30
0f30
0f20
0f60
0740
07c0
0780
0700
0700
0600
4400
ec00
f800
7000
ENDCHAR
STARTCHAR z
ENCODING 122
SWIDTH 466 0
DWIDTH 12 0
BBX 14 13 0 0
BITMAP
1ffc
1ff8
30f0
21e0
0380
0300
0600
0c10
1810
3e30
7fe0
efe0
c1c0
ENDCHAR
STARTCHAR braceleft
ENCODING 123
SWIDTH 340 0
DWIDTH 8 0
BBX 9 21 3 -3
BITMAP
0380
0600
0400
0c00
0c00
0c00
0c00
1c00
1800
1800
e000
3000
3800
3800
3000
7000
7000
6000
6000
6000
3800
ENDCHAR
STARTCHAR bar
ENCODING 124
SWIDTH 265 0
DWIDTH 7 0
BBX 3 18 4 0
BITMAP
e0
e0
e0
e0
e0
e0
e0
e0
e0
e0
e0
e0
e0
e0
e0
e0
e0
e0
ENDCHAR
STARTCHAR braceright
ENCODING 125
SWIDTH 340 0
DWIDTH 8 0
BBX 9 21 0 -3
BITMAP
0e00
0300
0300
0300
0700
0700
0600
0e00
0e00
0600
0380
0c00
0c00
1c00
1800
1800
1800
1800
3000
3000
e000
ENDCHAR
STARTCHAR asciitilde
ENCODING 126
SWIDTH 600 0
DWIDTH 15 0
BBX 13 5 2 4
BITMAP
0010
3f18
7ff0
c3e0
4000
ENDCHAR
STARTCHAR nobreakspace
ENCODING 160
SWIDTH 210 0
DWIDTH 5 0
BBX 0 0 0 0
BITMAP
ENDCHAR
STARTCHAR Aogonek
ENCODING 161
SWIDTH 634 0
DWIDTH 16 0
BBX 17 24 0 -6
BITMAP
001c00
003c00
003c00
007c00
007c00
00dc00
009c00
019c00
011c00
031e00
021e00
07fe00
0c1e00
0c1e00
181e00
181e00
301e00
fc7f80
004000
018000
010000
030000
030000
01e000
ENDCHAR
STARTCHAR breve
ENCODING 162
SWIDTH 400 0
DWIDTH 10 0
BBX 8 4 5 14
BITMAP
81
82
fe
78
ENDCHAR
STARTCHAR Lstroke
ENCODING 163
SWIDTH 592 0
DWIDTH 15 0
BBX 15 18 1 0
BITMAP
0ff0
07c0
0780
0780
0788
0790
0760
0fc0
0f80
0f00
1f00
3e00
5e00
9e02
1e04
1e0c
3e1c
fff8
ENDCHAR
STARTCHAR currency
ENCODING 164
SWIDTH 560 0
DWIDTH 14 0
BBX 12 13 3 2
BITMAP
4020
cf30
fff0
70e0
70e0
e070
e070
e070
70e0
70e0
fff0
cf30
4020
ENDCHAR
STARTCHAR Lcaron
ENCODING 165
SWIDTH 720 0
DWIDTH 18 0
BBX 18 20 1 0
BITMAP
000180
0003c0
0ff3c0
07c1c0
078180
078300
078200
078400
0f0000
0f0000
0f0000
0f0000
0f0000
1e0000
1e0000
1e0200
1e0400
3e0c00
3e1c00
fffc00
ENDCHAR
STARTCHAR Sacute
ENCODING 166
SWIDTH 551 0
DWIDTH 14 0
BBX 15 25 2 0
BITMAP
0004
000e
001c
0038
0060
0080
0000
03e0
0e38
1c30
3c10
3c10
3c00
3e00
1f80
0fc0
03e0
01e0
01f0
c0f0
c0f0
c0e0
e0e0
71c0
1f00
ENDCHAR
STARTCHAR section
ENCODING 167
SWIDTH 568 0
DWIDTH 14 0
BBX 13 21 2 -3
BITMAP
01e0
0238
0638
0600
1f00
3780
27c0
63e0
61f0
7070
3838
3c38
1e18
0f10
0730
03e0
01c0
6180
e180
7100
1e00
ENDCHAR
STARTCHAR diaeresis
ENCODING 168
SWIDTH 400 0
DWIDTH 10 0
BBX 10 4 3 14
BITMAP
6180
f3c0
f3c0
6180
ENDCHAR
STARTCHAR Scaron
ENCODING 169
SWIDTH 551 0
DWIDTH 14 0
BBX 14 25 2 0
BITMAP
0404
0618
0330
01e0
01c0
0080
0000
03e0
0e38
1c30
3c10
3c10
3c00
3e00
1f80
0fc0
03e0
01e0
01f0
c0f0
c0f0
c0e0
e0e0
71c0
1f00
ENDCHAR
STARTCHAR Scedilla
ENCODING 170
SWIDTH 551 0
DWIDTH 14 0
BBX 13 25 2 -7
BITMAP
03e0
0e38
1c30
3c10
3c10
3c00
3e00
1f80
0fc0
03e0
01e0
01f0
c0f0
c0f0
c0e0
e0e0
71c0
1f00
0100
0200
0600
0780
0380
0380
0e00
ENDCHAR
STARTCHAR Tcaron
ENCODING 171
SWIDTH 616 0
DWIDTH 15 0
BBX 16 25 3 0
BITMAP
0404
0618
0330
01e0
01c0
0080
0000
7fff
63c7
43c2
c3c2
83c2
0780
0780
0780
0780
0700
0f00
0f00
0f00
0f00
0e00
1e00
1e00
7f80
ENDCHAR
STARTCHAR Zacute
ENCODING 172
SWIDTH 618 0
DWIDTH 15 0
BBX 19 25 0 0
BITMAP
000040
0000e0
0001c0
000380
000600
000800
000000
07ffe0
0607c0
040f80
0c1f80
081f00
003e00
007c00
00f800
01f000
01f000
03e000
07c000
0f8000
1f0100
1e0300
3e0300
7c0600
fffe00
ENDCHAR
STARTCHAR hyphen
ENCODING 173
SWIDTH 392 0
DWIDTH 10 0
BBX 7 2 3 5
BITMAP
fe
fe
ENDCHAR
STARTCHAR Zcaron
ENCODING 174
SWIDTH 618 0
DWIDTH 15 0
BBX 19 25 0 0
BITMAP
004040
006180
003300
001e00
001c00
000800
000000
07ffe0
0607c0
040f80
0c1f80
081f00
003e00
007c00
00f800
01f000
01f000
03e000
07c000
0f8000
1f0100
1e0300
3e0300
7c0600
fffe00
ENDCHAR
STARTCHAR Zabovedot
ENCODING 175
SWIDTH 618 0
DWIDTH 15 0
BBX 19 23 0 0
BITMAP
000c00
001e00
001e00
000c00
000000
07ffe0
0607c0
040f80
0c1f80
081f00
003e00
007c00
00f800
01f000
01f000
03e000
07c000
0f8000
1f0100
1e0300
3e0300
7c0600
fffe00
ENDCHAR
STARTCHAR degree
ENCODING 176
SWIDTH 375 0
DWIDTH 9 0
BBX 9 8 3 9
BITMAP
3e00
6300
c180
c180
c180
c180
6300
3e00
ENDCHAR
STARTCHAR aogonek
ENCODING 177
SWIDTH 596 0
DWIDTH 15 0
BBX 15 19 1 -6
BITMAP
03dc
073c
1e3c
3c38
3878
7878
78f8
70f0
f170
f1f2
f2f4
fcf8
7070
0080
0300
0200
0600
0600
03c0
ENDCHAR
STARTCHAR ogonek
ENCODING 178
SWIDTH 350 0
DWIDTH 9 0
BBX 5 6 2 -6
BITMAP
10
60
40
c0
c0
78
ENDCHAR
STARTCHAR lstroke
ENCODING 179
SWIDTH 339 0
DWIDTH 8 0
BBX 10 19 1 0
BITMAP
0380
1f00
0700
0f00
0f00
0e00
0e40
1ec0
1f00
1e00
1c00
7c00
bc00
3c00
3800
7900
7a00
7c00
3800
ENDCHAR
STARTCHAR acute
ENCODING 180
SWIDTH 400 0
DWIDTH 10 0
BBX 7 6 5 13
BITMAP
04
0e
1c
38
60
80
ENDCHAR
STARTCHAR lcaron
ENCODING 181
SWIDTH 560 0
DWIDTH 14 0
BBX 14 21 2 0
BITMAP
0018
003c
073c
3e1c
0e18
1e30
1e20
1c40
1c00
3c00
3c00
3800
3800
7800
7800
7000
7000
f200
f400
f800
7000
ENDCHAR
STARTCHAR sacute
ENCODING 182
SWIDTH 417 0
DWIDTH 10 0
BBX 13 20 1 0
BITMAP
0010
0038
0070
00e0
0180
0200
0000
0f00
19c0
39c0
3880
3c00
1e00
1f00
0f00
0780
e380
e380
f300
3e00
ENDCHAR
STARTCHAR caron
ENCODING 183
SWIDTH 400 0
DWIDTH 10 0
BBX 9 6 4 13
BITMAP
8080
c300
6600
3c00
3800
1000
ENDCHAR
STARTCHAR cedilla
ENCODING 184
SWIDTH 400 0
DWIDTH 10 0
BBX 5 7 3 -6
BITMAP
10
20
60
78
38
38
e0
ENDCHAR
STARTCHAR scaron
ENCODING 185
SWIDTH 417 0
DWIDTH 10 0
BBX 12 20 1 0
BITMAP
1010
1860
0cc0
0780
0700
0200
0000
0f00
19c0
39c0
3880
3c00
1e00
1f00
0f00
0780
e380
e380
f300
3e00
ENDCHAR
STARTCHAR scedilla
ENCODING 186
SWIDTH 417 0
DWIDTH 10 0
BBX 10 20 1 -7
BITMAP
0f00
19c0
39c0
3880
3c00
1e00
1f00
0f00
0780
e380
e380
f300
3e00
0400
0800
1800
1e00
0e00
0e00
3800
ENDCHAR
STARTCHAR tcaron
ENCODING 187
SWIDTH 520 0
DWIDTH 13 0
BBX 13 24 2 0
BITMAP
0030
0078
0078
0038
0030
0060
0040
0280
0600
1e00
1c00
ff80
3c00
3c00
3800
3800
7800
7800
7000
7200
f200
f400
f800
7000
ENDCHAR
STARTCHAR zacute
ENCODING 188
SWIDTH 466 0
DWIDTH 12 0
BBX 15 20 0 0
BITMAP
0004
000e
001c
0038
0060
0080
0000
1ffc
1ff8
30f0
21e0
0380
0300
0600
0c10
1810
3e30
7fe0
efe0
c1c0
ENDCHAR
STARTCHAR doubleacute
ENCODING 189
SWIDTH 400 0
DWIDTH 10 0
BBX 8 5 5 14
BITMAP
33
77
66
c4
88
ENDCHAR
STARTCHAR zcaron
ENCODING 190
SWIDTH 466 0
DWIDTH 12 0
BBX 14 20 0 0
BITMAP
0404
0618
0330
01e0
01c0
0080
0000
1ffc
1ff8
30f0
21e0
0380
0300
0600
0c10
1810
3e30
7fe0
efe0
c1c0
ENDCHAR
STARTCHAR zabovedot
ENCODING 191
SWIDTH 466 0
DWIDTH 12 0
BBX 14 18 0 0
BITMAP
00c0
01e0
01e0
00c0
0000
1ffc
1ff8
30f0
21e0
0380
0300
0600
0c10
1810
3e30
7fe0
efe0
c1c0
ENDCHAR
STARTCHAR Racute
ENCODING 192
SWIDTH 681 0
DWIDTH 17 0
BBX 17 25 1 0
BITMAP
000100
000380
000700
000e00
001800
002000
000000
1ffc00
078f00
078780
078780
070780
0f0780
0f0f00
0f0f00
0f1e00
1ff000
1e1c00
1e1e00
1e1e00
1c1e00
3c1e00
3c1e00
3c0f00
ff0f80
ENDCHAR
STARTCHAR Aacute
ENCODING 193
SWIDTH 634 0
DWIDTH 16 0
BBX 17 23 0 0
BITMAP
000300
000f80
001f00
003800
000000
001c00
003c00
003c00
007c00
007c00
00dc00
009c00
019c00
011c00
031e00
021e00
07fe00
0c1e00
0c1e00
181e00
181e00
301e00
fc7f80
ENDCHAR
STARTCHAR Acircumflex
ENCODING 194
SWIDTH 634 0
DWIDTH 16 0
BBX 17 23 0 0
BITMAP
000c00
001e00
007f00
00e380
000000
001c00
003c00
003c00
007c00
007c00
00dc00
009c00
019c00
011c00
031e00
021e00
07fe00
0c1e00
0c1e00
181e00
181e00
301e00
fc7f80
ENDCHAR
STARTCHAR Abreve
ENCODING 195
SWIDTH 634 0
DWIDTH 16 0
BBX 18 23 0 0
BITMAP
002040
002080
003f80
001e00
000000
001c00
003c00
003c00
007c00
007c00
00dc00
009c00
019c00
011c00
031e00
021e00
07fe00
0c1e00
0c1e00
181e00
181e00
301e00
fc7f80
ENDCHAR
STARTCHAR Adiaeresis
ENCODING 196
SWIDTH 634 0
DWIDTH 16 0
BBX 17 22 0 0
BITMAP
00c300
01e780
01e780
00c300
003800
003c00
007c00
007c00
00fc00
00bc00
01bc00
013c00
031c00
021c00
061c00
07fc00
0c1e00
081e00
181e00
101e00
301e00
fc7f80
ENDCHAR
STARTCHAR Lacute
ENCODING 197
SWIDTH 586 0
DWIDTH 15 0
BBX 15 25 1 0
BITMAP
0004
000e
001c
0038
0060
0080
0000
0ff0
07c0
0780
0780
0780
0780
0f00
0f00
0f00
0f00
0f00
1e00
1e00
1e02
1e04
3e0c
3e1c
fffc
ENDCHAR
STARTCHAR Cacute
ENCODING 198
SWIDTH 672 0
DWIDTH 17 0
BBX 16 25 3 0
BITMAP
0002
0007
000e
001c
0030
0040
0000
01fc
0707
1e07
3c02
3c02
7802
7800
f800
f000
f000
f000
f000
f004
700c
700c
7818
1c38
07e0
ENDCHAR
STARTCHAR Ccedilla
ENCODING 199
SWIDTH 672 0
DWIDTH 17 0
BBX 16 24 3 -6
BITMAP
01fc
0787
1e07
3e02
3c02
7802
7800
f800
f000
f000
f000
f000
f004
7004
700c
3818
1c38
07f0
0300
0380
07c0
01c0
01c0
0f00
ENDCHAR
STARTCHAR Ccaron
ENCODING 200
SWIDTH 672 0
DWIDTH 17 0
BBX 16 25 3 0
BITMAP
0202
030c
0198
00f0
00e0
0040
0000
01fc
0707
1e07
3c02
3c02
7802
7800
f800
f000
f000
f000
f000
f004
700c
700c
7818
1c38
07e0
ENDCHAR
STARTCHAR Eacute
ENCODING 201
SWIDTH 622 0
DWIDTH 16 0
BBX 17 23 1 0
BITMAP
000700
000f00
003e00
007000
000000
1fff80
078380
078180
078100
078100
070000
0f0400
0f0c00
0ff800
0f1800
0e0800
1e0000
1e0000
1e0200
1e0600
3c0c00
3c1c00
fffc00
ENDCHAR
STARTCHAR Eogonek
ENCODING 202
SWIDTH 622 0
DWIDTH 16 0
BBX 17 24 1 -6
BITMAP
1fff80
078380
078180
078100
078100
070000
0f0400
0f0c00
0ff800
0f1800
0e0800
1e0000
1e0000
1e0200
1e0600
3c0c00
3c1c00
fffc00
004000
018000
010000
030000
030000
01e000
ENDCHAR
STARTCHAR Ediaeresis
ENCODING 203
SWIDTH 622 0
DWIDTH 16 0
BBX 17 22 1 0
BITMAP
018600
03cf00
03cf00
018600
0fff80
078300
078300
078100
078100
070000
0f0c00
0f0800
0ff800
0f1800
0e0800
1e0000
1e0000
1e0200
1e0400
1c0c00
3e1c00
fffc00
ENDCHAR
STARTCHAR Ecaron
ENCODING 204
SWIDTH 622 0
DWIDTH 16 0
BBX 17 25 1 0
BITMAP
010100
018600
00cc00
007800
007000
002000
000000
1fff80
078380
078180
078100
078100
070000
0f0400
0f0c00
0ff800
0f1800
0e0800
1e0000
1e0000
1e0200
1e0600
3c0c00
3c1c00
fffc00
ENDCHAR
STARTCHAR Iacute
ENCODING 205
SWIDTH 386 0
DWIDTH 10 0
BBX 12 23 1 0
BITMAP
0070
00f0
03e0
0700
0000
1fe0
0780
0780
0780
0700
0f00
0f00
0f00
0f00
0e00
1e00
1e00
1e00
1e00
1c00
3c00
3c00
ff00
ENDCHAR
STARTCHAR Icircumflex
ENCODING 206
SWIDTH 386 0
DWIDTH 10 0
BBX 13 23 1 0
BITMAP
0080
01e0
07f0
1c38
0000
0ff0
03c0
0780
0780
0780
0780
0700
0f00
0f00
0f00
0f00
0e00
1e00
1e00
1e00
1e00
3c00
ff00
ENDCHAR
STARTCHAR Dcaron
ENCODING 207
SWIDTH 774 0
DWIDTH 19 0
BBX 19 25 1 0
BITMAP
010100
018600
00cc00
007800
007000
002000
000000
1ffc00
078780
078380
0781c0
0701c0
0f01e0
0f01e0
0f01e0
0f01e0
1e01e0
1e03c0
1e03c0
1e03c0
1e0780
3c0780
3c0f00
3c3c00
fff000
ENDCHAR
STARTCHAR Dstroke
ENCODING 208
SWIDTH 780 0
DWIDTH 19 0
BBX 20 18 1 0
BITMAP
1ffe00
0783c0
0781c0
0780e0
0700e0
0f00f0
0f00f0
0f00f0
7ff0f0
1e00f0
1e01e0
1e01e0
1e03e0
1c03c0
3c07c0
3c0f80
3c3e00
fff000
ENDCHAR
STARTCHAR Nacute
ENCODING 209
SWIDTH 741 0
DWIDTH 19 0
BBX 21 25 1 0
BITMAP
000040
0000e0
0001c0
000380
000600
000800
000000
0f81f8
07c060
07c060
07e040
05e0c0
04e0c0
0cf0c0
0cf080
0c7880
087980
083980
183d80
183d00
181f00
101f00
300f00
300e00
fc0e00
ENDCHAR
STARTCHAR Ncaron
ENCODING 210
SWIDTH 741 0
DWIDTH 19 0
BBX 21 25 1 0
BITMAP
004040
006180
003300
001e00
001c00
000800
000000
0f81f8
07c060
07c060
07e040
05e0c0
04e0c0
0cf0c0
0cf080
0c7880
087980
083980
183d80
183d00
181f00
101f00
300f00
300e00
fc0e00
ENDCHAR
STARTCHAR Oacute
ENCODING 211
SWIDTH 761 0
DWIDTH 19 0
BBX 17 23 3 0
BITMAP
000400
001e00
003c00
00f000
008000
01f800
0f0e00
1e0600
3e0700
3c0780
780780
780780
780780
f80780
f00f80
f00f00
f00f00
f00f00
f01e00
703e00
383c00
187800
0fe000
ENDCHAR
STARTCHAR Ocircumflex
ENCODING 212
SWIDTH 761 0
DWIDTH 19 0
BBX 17 23 3 0
BITMAP
001000
007800
00fc00
038600
020200
01f800
0f0e00
1e0600
3e0700
3c0780
780780
780780
780780
f80780
f00f80
f00f00
f00f00
f00f00
f01e00
703e00
383c00
187800
0fe000
ENDCHAR
STARTCHAR Odoubleacute
ENCODING 213
SWIDTH 761 0
DWIDTH 19 0
BBX 17 24 3 0
BITMAP
006600
00ee00
00cc00
018800
011000
000000
01f800
0f0e00
1e0600
3e0700
3c0780
780780
780780
780780
f80780
f00f80
f00f00
f00f00
f00f00
f01e00
703e00
383c00
187800
0fe000
ENDCHAR
STARTCHAR Odiaeresis
ENCODING 214
SWIDTH 761 0
DWIDTH 19 0
BBX 17 22 3 0
BITMAP
030600
078f00
078f00
030600
01f800
0f0e00
1e0600
3e0700
3c0780
780780
780780
780780
f80780
f00f80
f00f00
f00f00
f00f00
f01e00
703e00
383c00
187800
0fe000
ENDCHAR
STARTCHAR multiply
ENCODING 215
SWIDTH 600 0
DWIDTH 15 0
BBX 11 11 4 1
BITMAP
4040
e0e0
71c0
3b80
1f00
0e00
1f00
3b80
71c0
e0e0
4040
ENDCHAR
STARTCHAR Rcaron
ENCODING 216
SWIDTH 681 0
DWIDTH 17 0
BBX 17 25 1 0
BITMAP
010100
018600
00cc00
007800
007000
002000
000000
1ffc00
078f00
078780
078780
070780
0f0780
0f0f00
0f0f00
0f1e00
1ff000
1e1c00
1e1e00
1e1e00
1c1e00
3c1e00
3c1e00
3c0f00
ff0f80
ENDCHAR
STARTCHAR Uring
ENCODING 217
SWIDTH 776 0
DWIDTH 19 0
BBX 19 25 4 0
BITMAP
007000
00c800
018c00
018c00
009800
007000
000000
7f9fe0
3c0780
3c0700
3c0f00
3c0f00
380f00
780f00
780e00
781e00
781e00
701e00
f01c00
f03c00
f03c00
f03800
707800
78f000
1fc000
ENDCHAR
STARTCHAR Uacute
ENCODING 218
SWIDTH 776 0
DWIDTH 19 0
BBX 19 23 4 0
BITMAP
000300
000f80
001e00
007000
000000
7f9fe0
3c0780
3c0700
3c0f00
3c0f00
380f00
780f00
780e00
781e00
781e00
701e00
f01c00
f03c00
f03c00
f03800
707800
78f000
1fc000
ENDCHAR
STARTCHAR Udoubleacute
ENCODING 219
SWIDTH 776 0
DWIDTH 19 0
BBX 19 24 4 0
BITMAP
003300
007700
006600
00c400
008800
000000
7f9fe0
3c0780
3c0700
3c0f00
3c0f00
380f00
780f00
780e00
781e00
781e00
701e00
f01c00
f03c00
f03c00
f03800
707800
78f000
1fc000
ENDCHAR
STARTCHAR Udiaeresis
ENCODING 220
SWIDTH 776 0
DWIDTH 19 0
BBX 19 22 4 0
BITMAP
030c00
079e00
079e00
030c00
7f9fe0
3e0f80
3c0f00
3c0f00
3c0f00
3c0f00
780e00
781e00
781e00
781e00
701c00
f01c00
f03c00
f03c00
f03800
707800
78f000
1fc000
ENDCHAR
STARTCHAR Yacute
ENCODING 221
SWIDTH 622 0
DWIDTH 16 0
BBX 17 23 3 0
BITMAP
000700
000f00
003e00
007000
000000
ff3f80
3c0e00
3c0c00
3c1800
1c3800
1e3000
1e6000
1e4000
0ec000
0f8000
0f0000
0f0000
0f0000
0f0000
1e0000
1e0000
1e0000
ff8000
ENDCHAR
STARTCHAR Tcedilla
ENCODING 222
SWIDTH 616 0
DWIDTH 15 0
BBX 16 25 3 -7
BITMAP
7fff
63c7
43c2
c3c2
83c2
0780
0780
0780
0780
0700
0f00
0f00
0f00
0f00
0e00
1e00
1e00
7f80
0080
0100
0300
03c0
01c0
01c0
0700
ENDCHAR
STARTCHAR ssharp
ENCODING 223
SWIDTH 628 0
DWIDTH 16 0
BBX 20 25 -2 -6
BITMAP
0007c0
0038e0
007870
00f070
00f070
00e0e0
07e1e0
01c780
01c700
03cf00
03cf00
03cf80
038780
0383c0
0783c0
0781c0
0711c0
073980
071f00
070000
0e0000
0e0000
ce0000
ec0000
f80000
ENDCHAR
STARTCHAR racute
ENCODING 224
SWIDTH 440 0
DWIDTH 11 0
BBX 13 20 2 0
BITMAP
0010
0038
0070
00e0
0180
0200
0000
1c60
7de0
3de0
3a40
3c00
3c00
3800
7800
7000
7000
7000
f000
e000
ENDCHAR
STARTCHAR aacute
ENCODING 225
SWIDTH 596 0
DWIDTH 15 0
BBX 15 19 1 0
BITMAP
000c
003c
0078
00e0
00c0
0100
03dc
073c
1e3c
3c38
3878
7878
78f8
70f0
f170
f1f2
f2f4
fcf8
7070
ENDCHAR
STARTCHAR acircumflex
ENCODING 226
SWIDTH 596 0
DWIDTH 15 0
BBX 15 19 1 0
BITMAP
0020
00f0
01f0
0398
060c
0404
03dc
073c
1e3c
3c38
3878
7878
78f8
70f0
f170
f1f2
f2f4
fcf8
7070
ENDCHAR
STARTCHAR abreve
ENCODING 227
SWIDTH 596 0
DWIDTH 15 0
BBX 15 18 1 0
BITMAP
0204
0208
03f8
01e0
0000
03dc
073c
1e3c
3c38
3878
7878
78f8
70f0
f170
f1f2
f2f4
fcf8
7070
ENDCHAR
STARTCHAR adiaeresis
ENCODING 228
SWIDTH 596 0
DWIDTH 15 0
BBX 15 18 1 0
BITMAP
030c
079e
079e
030c
0000
03dc
073c
1e3c
3c38
3878
7878
78f8
70f0
f170
f1f2
f2f4
fcf8
7070
ENDCHAR
STARTCHAR lacute
ENCODING 229
SWIDTH 327 0
DWIDTH 8 0
BBX 12 26 2 0
BITMAP
0020
0070
00e0
01c0
0300
0400
0000
0700
3e00
0e00
1e00
1e00
1c00
1c00
3c00
3c00
3800
3800
7800
7800
7000
7000
f200
f400
f800
7000
ENDCHAR
STARTCHAR cacute
ENCODING 230
SWIDTH 456 0
DWIDTH 11 0
BBX 13 20 2 0
BITMAP
0010
0038
0070
00e0
0180
0200
0000
03c0
0ce0
38e0
38c0
7800
7000
f000
f000
f040
f080
f180
7f00
3800
ENDCHAR
STARTCHAR ccedilla
ENCODING 231
SWIDTH 456 0
DWIDTH 11 0
BBX 11 19 2 -6
BITMAP
03c0
0ce0
38e0
38c0
7800
7000
f000
f000
f0c0
f080
f180
7f00
3c00
1000
3000
3c00
1c00
1c00
7000
ENDCHAR
STARTCHAR ccaron
ENCODING 232
SWIDTH 456 0
DWIDTH 11 0
BBX 12 20 2 0
BITMAP
1010
1860
0cc0
0780
0700
0200
0000
03c0
0ce0
38e0
38c0
7800
7000
f000
f000
f040
f080
f180
7f00
3800
ENDCHAR
STARTCHAR eacute
ENCODING 233
SWIDTH 476 0
DWIDTH 12 0
BBX 12 19 2 0
BITMAP
0020
0070
00e0
01c0
0300
0200
0380
0ce0
38e0
38e0
79c0
73c0
ff00
f800
f040
f080
f180
7f00
1800
ENDCHAR
STARTCHAR eogonek
ENCODING 234
SWIDTH 476 0
DWIDTH 12 0
BBX 11 19 2 -6
BITMAP
0380
0ce0
38e0
38e0
79c0
73c0
ff00
f800
f040
f080
f180
7f00
1800
0200
0c00
0800
1800
1800
0f00
ENDCHAR
STARTCHAR ediaeresis
ENCODING 235
SWIDTH 476 0
DWIDTH 12 0
BBX 12 18 2 0
BITMAP
1860
3cf0
3cf0
1860
0000
0380
0ce0
38e0
38e0
79c0
73c0
ff00
f800
f040
f080
f180
7f00
1800
ENDCHAR
STARTCHAR ecaron
ENCODING 236
SWIDTH 476 0
DWIDTH 12 0
BBX 12 20 2 0
BITMAP
1010
1860
0cc0
0780
0700
0200
0000
0380
0ce0
38e0
38e0
79c0
73c0
ff00
f800
f040
f080
f180
7f00
1800
ENDCHAR
STARTCHAR iacute
ENCODING 237
SWIDTH 339 0
DWIDTH 8 0
BBX 9 19 2 0
BITMAP
0100
0780
0f00
1e00
3800
2000
0e00
fc00
3c00
3c00
3800
3800
7800
7800
7000
7200
f400
f800
7000
ENDCHAR
STARTCHAR icircumflex
ENCODING 238
SWIDTH 339 0
DWIDTH 8 0
BBX 10 19 1 0
BITMAP
0600
0f00
1f00
3180
e0c0
4040
0700
7e00
1e00
1e00
1c00
1c00
3c00
3c00
3800
3900
7a00
7c00
3800
ENDCHAR
STARTCHAR dcaron
ENCODING 239
SWIDTH 840 0
DWIDTH 21 0
BBX 22 21 2 0
BITMAP
000018
00003c
00073c
003e1c
001e18
001e30
001e20
001c40
03dc00
0f3c00
1c3c00
3c3800
387800
787800
78f800
f0f000
f17000
f17200
f2f400
7cf800
787000
ENDCHAR
STARTCHAR dstroke
ENCODING 240
SWIDTH 680 0
DWIDTH 17 0
BBX 18 19 2 0
BITMAP
000700
003e00
001e00
00ffc0
00ffc0
001c00
03dc00
0f3c00
1c3c00
3c3800
387800
787800
78f800
f0f000
f17000
f17200
f2f400
7cf800
787000
ENDCHAR
STARTCHAR nacute
ENCODING 241
SWIDTH 635 0
DWIDTH 16 0
BBX 15 20 2 0
BITMAP
0008
001c
0038
0070
00c0
0100
0000
0e38
7cfc
1d3c
3d3c
3a38
3c78
3c78
7878
7870
78f2
70f4
f0f8
f070
ENDCHAR
STARTCHAR ncaron
ENCODING 242
SWIDTH 635 0
DWIDTH 16 0
BBX 15 20 2 0
BITMAP
0808
0c30
0660
03c0
0380
0100
0000
0e38
7cfc
1d3c
3d3c
3a38
3c78
3c78
7878
7870
78f2
70f4
f0f8
f070
ENDCHAR
STARTCHAR oacute
ENCODING 243
SWIDTH 562 0
DWIDTH 14 0
BBX 13 19 2 0
BITMAP
0010
0078
0070
00e0
0180
0200
03c0
1e70
3c70
3878
7878
7878
f8f8
f0f0
f0f0
f0e0
71e0
73c0
1e00
ENDCHAR
STARTCHAR ocircumflex
ENCODING 244
SWIDTH 562 0
DWIDTH 14 0
BBX 13 19 2 0
BITMAP
0080
01c0
03e0
0660
0830
1010
03c0
1e70
3c70
3878
7878
7878
f8f8
f0f0
f0f0
f0e0
71e0
73c0
1e00
ENDCHAR
STARTCHAR odoubleacute
ENCODING 245
SWIDTH 562 0
DWIDTH 14 0
BBX 13 19 2 0
BITMAP
0198
03b8
0330
0620
0440
0000
03c0
1e70
3c70
3878
7878
7878
f8f8
f0f0
f0f0
f0e0
71e0
73c0
1e00
ENDCHAR
STARTCHAR odiaeresis
ENCODING 246
SWIDTH 562 0
DWIDTH 14 0
BBX 14 18 2 0
BITMAP
0618
0f3c
0f3c
0618
0000
03c0
1e70
3c70
3878
7878
7878
f8f8
f0f0
f0f0
f0e0
71e0
73c0
1e00
ENDCHAR
STARTCHAR division
ENCODING 247
SWIDTH 600 0
DWIDTH 15 0
BBX 12 12 3 0
BITMAP
0600
0f00
0f00
0600
0000
fff0
fff0
0000
0600
0f00
0f00
0600
ENDCHAR
STARTCHAR rcaron
ENCODING 248
SWIDTH 440 0
DWIDTH 11 0
BBX 12 20 2 0
BITMAP
1010
1860
0cc0
0780
0700
0200
0000
1c60
7de0
3de0
3a40
3c00
3c00
3800
7800
7000
7000
7000
f000
e000
ENDCHAR
STARTCHAR uring
ENCODING 249
SWIDTH 634 0
DWIDTH 16 0
BBX 15 20 2 0
BITMAP
0380
0640
0c60
0c60
04c0
0380
0000
0e1c
fc1c
3c3c
3c3c
3878
7878
7878
78f8
7170
f172
f2f4
fcf8
7070
ENDCHAR
STARTCHAR uacute
ENCODING 250
SWIDTH 634 0
DWIDTH 16 0
BBX 15 19 2 0
BITMAP
0004
001e
003c
0078
00e0
0080
0e1c
fc1c
3c3c
3c3c
3878
7878
7878
78f8
7170
f172
f2f4
fcf8
7070
ENDCHAR
STARTCHAR udoubleacute
ENCODING 251
SWIDTH 634 0
DWIDTH 16 0
BBX 15 19 2 0
BITMAP
0198
03b8
0330
0620
0440
0000
0e1c
fc1c
3c3c
3c3c
3878
7878
7878
78f8
7170
f172
f2f4
fcf8
7070
ENDCHAR
STARTCHAR udiaeresis
ENCODING 252
SWIDTH 634 0
DWIDTH 16 0
BBX 15 18 2 0
BITMAP
0618
0f3c
0f3c
0618
0000
0e1c
fc1c
3c3c
3c3c
3878
7878
7878
78f8
7170
f172
f2f4
fcf8
7070
ENDCHAR
STARTCHAR yacute
ENCODING 253
SWIDTH 489 0
DWIDTH 12 0
BBX 14 25 0 -6
BITMAP
0008
001c
0038
0070
00c0
0100
020c
1e1c
7e1c
0e18
0e18
0e30
0f30
0f20
0f60
0740
07c0
0780
0700
0700
0600
4400
ec00
f800
7000
ENDCHAR
STARTCHAR tcedilla
ENCODING 254
SWIDTH 359 0
DWIDTH 9 0
BBX 9 24 2 -7
BITMAP
0200
0600
1e00
1c00
ff80
3c00
3c00
3800
3800
7800
7800
7000
7200
f200
f400
f800
7000
0400
0800
1800
1e00
0e00
0e00
3800
ENDCHAR
STARTCHAR abovedot
ENCODING 255
SWIDTH 402 0
DWIDTH 10 0
BBX 4 4 6 14
BITMAP
60
f0
f0
60
ENDCHAR
ENDFONT
